<svg width="20" height="20" viewBox="0 0 20 20" fill="none" xmlns="http://www.w3.org/2000/svg">
<g clip-path="url(#clip0_360_24418)">
<path d="M14.55 4.16667C14.5 4.90833 14.375 5.63333 14.175 6.325L15.175 7.325C15.5167 6.325 15.7333 5.26667 15.8083 4.16667H14.55V4.16667ZM6.33333 14.1833C5.625 14.3833 4.9 14.5083 4.16667 14.5583V15.8C5.26667 15.725 6.325 15.5083 7.33333 15.175L6.33333 14.1833ZM13.75 2.5H16.6667C17.125 2.5 17.5 2.875 17.5 3.33333C17.5 11.1583 11.1583 17.5 3.33333 17.5C2.875 17.5 2.5 17.125 2.5 16.6667V13.7583C2.5 13.3 2.875 12.925 3.33333 12.925C4.36667 12.925 5.375 12.7583 6.30833 12.45C6.39167 12.4167 6.48333 12.4083 6.56667 12.4083C6.78333 12.4083 6.99167 12.4917 7.15833 12.65L8.99167 14.4833C11.35 13.275 13.2833 11.35 14.4833 8.99167L12.65 7.15833C12.4167 6.925 12.35 6.6 12.4417 6.30833C12.75 5.375 12.9167 4.375 12.9167 3.33333C12.9167 2.875 13.2917 2.5 13.75 2.5Z" fill="#fff"/>
</g>
<defs>
<clipPath id="clip0_360_24418">
<rect width="20" height="20" fill="white"/>
</clipPath>
</defs>
</svg>
