<?xml version="1.0" encoding="UTF-8"?>
<svg xmlns="http://www.w3.org/2000/svg" xmlns:xlink="http://www.w3.org/1999/xlink" viewBox="0 0 20 20" width="20px" height="20px">
<g id="surface192413344">
<path style=" stroke:none;fill-rule:nonzero;fill:rgb(100%,100%,100%);fill-opacity:1;" d="M 6.398438 1.199219 C 3.53125 1.199219 1.199219 3.53125 1.199219 6.398438 L 1.199219 13.601562 C 1.199219 16.46875 3.53125 18.800781 6.398438 18.800781 L 13.601562 18.800781 C 16.46875 18.800781 18.800781 16.46875 18.800781 13.601562 L 18.800781 6.398438 C 18.800781 3.53125 16.46875 1.199219 13.601562 1.199219 Z M 6.398438 2 L 13.601562 2 C 16.035156 2 18 3.964844 18 6.398438 L 18 13.601562 C 18 16.035156 16.035156 18 13.601562 18 L 6.398438 18 C 3.964844 18 2 16.035156 2 13.601562 L 2 6.398438 C 2 3.964844 3.964844 2 6.398438 2 Z M 14.800781 4.398438 C 14.359375 4.398438 14 4.757812 14 5.199219 C 14 5.640625 14.359375 6 14.800781 6 C 15.242188 6 15.601562 5.640625 15.601562 5.199219 C 15.601562 4.757812 15.242188 4.398438 14.800781 4.398438 Z M 10 5.601562 C 7.574219 5.601562 5.601562 7.574219 5.601562 10 C 5.601562 12.425781 7.574219 14.398438 10 14.398438 C 12.425781 14.398438 14.398438 12.425781 14.398438 10 C 14.398438 7.574219 12.425781 5.601562 10 5.601562 Z M 10 6.398438 C 11.992188 6.398438 13.601562 8.007812 13.601562 10 C 13.601562 11.992188 11.992188 13.601562 10 13.601562 C 8.007812 13.601562 6.398438 11.992188 6.398438 10 C 6.398438 8.007812 8.007812 6.398438 10 6.398438 Z M 10 6.398438 "/>
</g>
</svg>
