<?xml version="1.0" encoding="UTF-8"?>
<svg xmlns="http://www.w3.org/2000/svg" xmlns:xlink="http://www.w3.org/1999/xlink" viewBox="0 0 20 20" width="20px" height="20px">
<g id="surface188634815">
<path style=" stroke:none;fill-rule:nonzero;fill:rgb(100%,100%,100%);fill-opacity:1;" d="M 10 0.800781 C 4.921875 0.800781 0.800781 4.921875 0.800781 10 C 0.800781 11.632812 1.246094 13.15625 1.992188 14.484375 L 0.816406 18.691406 C 0.777344 18.828125 0.8125 18.976562 0.914062 19.078125 C 1.011719 19.179688 1.15625 19.222656 1.296875 19.1875 L 5.683594 18.101562 C 6.972656 18.789062 8.4375 19.199219 10 19.199219 C 15.078125 19.199219 19.199219 15.078125 19.199219 10 C 19.199219 4.921875 15.078125 0.800781 10 0.800781 Z M 10 1.601562 C 14.644531 1.601562 18.398438 5.355469 18.398438 10 C 18.398438 14.644531 14.644531 18.398438 10 18.398438 C 8.511719 18.398438 7.117188 18.011719 5.90625 17.332031 C 5.816406 17.285156 5.710938 17.269531 5.613281 17.292969 L 1.769531 18.246094 L 2.800781 14.570312 C 2.832031 14.464844 2.816406 14.351562 2.761719 14.257812 C 2.023438 13.007812 1.601562 11.554688 1.601562 10 C 1.601562 5.355469 5.355469 1.601562 10 1.601562 Z M 6.65625 5.199219 C 6.402344 5.199219 6.035156 5.296875 5.734375 5.621094 C 5.554688 5.8125 4.800781 6.546875 4.800781 7.835938 C 4.800781 9.183594 5.734375 10.34375 5.84375 10.492188 L 5.847656 10.492188 C 5.835938 10.476562 5.988281 10.699219 6.195312 10.96875 C 6.398438 11.234375 6.6875 11.585938 7.046875 11.964844 C 7.769531 12.726562 8.785156 13.601562 10.042969 14.140625 C 10.621094 14.386719 11.078125 14.535156 11.425781 14.644531 C 12.066406 14.847656 12.652344 14.816406 13.09375 14.75 C 13.421875 14.703125 13.78125 14.542969 14.140625 14.316406 C 14.5 14.089844 14.847656 13.808594 15.003906 13.382812 C 15.113281 13.074219 15.171875 12.792969 15.191406 12.558594 C 15.203125 12.441406 15.203125 12.339844 15.195312 12.242188 C 15.1875 12.148438 15.195312 12.074219 15.105469 11.929688 C 14.921875 11.625 14.710938 11.617188 14.488281 11.507812 C 14.367188 11.445312 14.019531 11.277344 13.671875 11.109375 C 13.320312 10.945312 13.019531 10.796875 12.832031 10.730469 C 12.714844 10.6875 12.574219 10.628906 12.367188 10.652344 C 12.160156 10.675781 11.953125 10.824219 11.835938 11 C 11.722656 11.167969 11.269531 11.703125 11.128906 11.859375 C 11.128906 11.859375 11.140625 11.867188 11.085938 11.839844 C 10.914062 11.753906 10.703125 11.679688 10.394531 11.519531 C 10.085938 11.355469 9.695312 11.113281 9.273438 10.738281 C 8.640625 10.183594 8.199219 9.484375 8.058594 9.25 C 8.070312 9.238281 8.058594 9.253906 8.078125 9.234375 L 8.078125 9.230469 C 8.222656 9.089844 8.347656 8.921875 8.453125 8.800781 C 8.605469 8.625 8.671875 8.472656 8.746094 8.328125 C 8.890625 8.042969 8.808594 7.726562 8.726562 7.5625 C 8.730469 7.574219 8.679688 7.460938 8.625 7.332031 C 8.570312 7.199219 8.5 7.03125 8.425781 6.851562 C 8.277344 6.492188 8.109375 6.089844 8.007812 5.855469 L 8.007812 5.851562 C 7.890625 5.574219 7.734375 5.375 7.527344 5.277344 C 7.320312 5.179688 7.136719 5.207031 7.128906 5.207031 C 6.980469 5.203125 6.816406 5.199219 6.65625 5.199219 Z M 6.65625 6 C 6.8125 6 6.964844 6 7.089844 6.007812 C 7.222656 6.015625 7.214844 6.015625 7.1875 6.003906 C 7.164062 5.992188 7.199219 5.988281 7.273438 6.164062 C 7.371094 6.394531 7.539062 6.800781 7.6875 7.160156 C 7.761719 7.339844 7.832031 7.507812 7.890625 7.640625 C 7.945312 7.773438 7.976562 7.847656 8.011719 7.917969 L 8.011719 7.921875 C 8.046875 7.988281 8.042969 7.945312 8.03125 7.96875 C 7.945312 8.136719 7.933594 8.179688 7.851562 8.277344 C 7.71875 8.425781 7.585938 8.59375 7.515625 8.664062 C 7.457031 8.722656 7.34375 8.816406 7.277344 9 C 7.207031 9.183594 7.238281 9.4375 7.351562 9.625 C 7.496094 9.878906 7.984375 10.671875 8.742188 11.339844 C 9.222656 11.761719 9.664062 12.039062 10.019531 12.226562 C 10.375 12.414062 10.664062 12.523438 10.730469 12.554688 C 10.882812 12.628906 11.050781 12.691406 11.246094 12.667969 C 11.441406 12.644531 11.613281 12.523438 11.71875 12.402344 C 11.863281 12.242188 12.285156 11.757812 12.488281 11.457031 C 12.5 11.460938 12.496094 11.457031 12.5625 11.484375 C 12.59375 11.496094 12.980469 11.667969 13.328125 11.832031 C 13.671875 11.996094 14.019531 12.167969 14.136719 12.222656 C 14.300781 12.304688 14.375 12.359375 14.398438 12.359375 C 14.398438 12.394531 14.398438 12.429688 14.394531 12.488281 C 14.378906 12.648438 14.335938 12.871094 14.25 13.109375 C 14.210938 13.226562 13.988281 13.46875 13.714844 13.640625 C 13.4375 13.816406 13.101562 13.941406 12.976562 13.960938 C 12.601562 14.015625 12.15625 14.035156 11.664062 13.882812 C 11.328125 13.773438 10.902344 13.636719 10.355469 13.402344 C 9.246094 12.929688 8.300781 12.125 7.628906 11.414062 C 7.292969 11.058594 7.019531 10.730469 6.828125 10.480469 C 6.636719 10.230469 6.554688 10.101562 6.484375 10.007812 C 6.359375 9.84375 5.601562 8.789062 5.601562 7.835938 C 5.601562 6.832031 6.066406 6.4375 6.320312 6.164062 C 6.453125 6.019531 6.597656 6 6.65625 6 Z M 6.65625 6 "/>
</g>
</svg>
