<?xml version="1.0" encoding="UTF-8"?>
<svg xmlns="http://www.w3.org/2000/svg" xmlns:xlink="http://www.w3.org/1999/xlink" viewBox="0 0 20 20" width="20px" height="20px">
<g id="surface188311616">
<path style=" stroke:none;fill-rule:nonzero;fill:rgb(100%,100%,100%);fill-opacity:1;" d="M 2.199219 2.800781 C 1.210938 2.800781 0.40625 3.605469 0.398438 4.59375 C 0.398438 4.59375 0.398438 4.59375 0.398438 4.597656 C 0.398438 4.597656 0.398438 4.597656 0.398438 4.601562 L 0.398438 15.398438 C 0.398438 16.390625 1.210938 17.199219 2.199219 17.199219 L 17.800781 17.199219 C 18.789062 17.199219 19.601562 16.390625 19.601562 15.398438 L 19.601562 4.601562 C 19.601562 4.597656 19.601562 4.597656 19.601562 4.597656 C 19.601562 4.59375 19.601562 4.59375 19.601562 4.59375 C 19.59375 3.605469 18.789062 2.800781 17.800781 2.800781 Z M 3.242188 3.601562 L 16.761719 3.601562 L 10 8.3125 Z M 1.910156 3.648438 L 10 9.289062 L 18.09375 3.648438 C 18.5 3.769531 18.796875 4.140625 18.800781 4.59375 C 18.796875 4.679688 18.710938 4.847656 18.585938 4.984375 C 18.460938 5.121094 18.335938 5.207031 18.335938 5.207031 L 18.335938 5.210938 L 10 11.109375 L 1.664062 5.210938 L 1.664062 5.207031 C 1.664062 5.207031 1.539062 5.121094 1.414062 4.984375 C 1.289062 4.847656 1.203125 4.679688 1.199219 4.59375 C 1.203125 4.140625 1.5 3.769531 1.910156 3.648438 Z M 1.199219 5.859375 L 1.207031 5.867188 L 2.398438 6.710938 L 2.398438 16.398438 L 2.199219 16.398438 C 1.644531 16.398438 1.199219 15.957031 1.199219 15.398438 Z M 18.800781 5.859375 L 18.800781 15.398438 C 18.800781 15.957031 18.355469 16.398438 17.800781 16.398438 L 17.601562 16.398438 L 17.601562 6.710938 L 18.792969 5.867188 Z M 3.199219 7.277344 L 10 12.089844 L 16.800781 7.277344 L 16.800781 16.398438 L 3.199219 16.398438 Z M 3.199219 7.277344 "/>
</g>
</svg>
