<?xml version="1.0" encoding="UTF-8"?>
<svg xmlns="http://www.w3.org/2000/svg" xmlns:xlink="http://www.w3.org/1999/xlink" viewBox="0 0 70 70" width="70px" height="70px">
<g id="surface31844542">
<path style="fill-rule:nonzero;fill:rgb(27.058825%,31.37255%,43.137255%);fill-opacity:1;stroke-width:40;stroke-linecap:butt;stroke-linejoin:round;stroke:rgb(27.058825%,31.37255%,43.137255%);stroke-opacity:1;stroke-miterlimit:10;" d="M 23.219844 86.000002 C 23.219844 51.3289 51.3289 23.219844 86.000002 23.219844 C 120.671103 23.219844 148.78016 51.3289 148.78016 86.000002 C 148.78016 120.671103 120.671103 148.78016 86.000002 148.78016 C 51.3289 148.78016 23.219844 120.671103 23.219844 86.000002 Z M 23.219844 86.000002 " transform="matrix(0.31907,0,0,0.31907,7.56,7.56)"/>
<path style="fill:none;stroke-width:40;stroke-linecap:round;stroke-linejoin:round;stroke:rgb(27.058825%,31.37255%,43.137255%);stroke-opacity:1;stroke-miterlimit:10;" d="M 16.180337 104.596543 C 16.180337 104.596543 45.587111 85.620481 77.368954 91.007234 C 105.490254 95.794098 109.579289 92.194768 122.960474 86.391766 C 131.983285 82.474127 134.52975 91.986643 133.415671 95.059541 " transform="matrix(0.31907,0,0,0.31907,7.56,7.56)"/>
<path style="fill:none;stroke-width:40;stroke-linecap:round;stroke-linejoin:round;stroke:rgb(27.058825%,31.37255%,43.137255%);stroke-opacity:1;stroke-miterlimit:10;" d="M 103.0907 105.747349 C 114.415124 104.559815 131.052846 95.904282 131.052846 95.904282 C 135.998864 93.015024 146.25818 99.307731 139.218674 108.722306 " transform="matrix(0.31907,0,0,0.31907,7.56,7.56)"/>
<path style="fill:none;stroke-width:40;stroke-linecap:round;stroke-linejoin:round;stroke:rgb(27.058825%,31.37255%,43.137255%);stroke-opacity:1;stroke-miterlimit:10;" d="M 105.367828 118.247065 C 105.367828 118.247065 118.736769 116.533098 129.20421 109.885355 C 139.39007 103.409008 149.147439 114.562036 138.031139 122.678893 C 127.845279 130.122407 115.296593 135.974379 80.907072 140.88367 C 48.831406 145.474653 42.612155 149.784055 37.813047 153.07732 " transform="matrix(0.31907,0,0,0.31907,7.56,7.56)"/>
<path style="fill:none;stroke-width:40;stroke-linecap:round;stroke-linejoin:round;stroke:rgb(27.058825%,31.37255%,43.137255%);stroke-opacity:1;stroke-miterlimit:10;" d="M 52.883713 103.139671 C 52.883713 103.139671 59.898735 102.270445 68.835848 109.212011 C 74.822489 113.215348 78.98498 112.113512 83.306625 109.983296 C 91.325542 106.053414 100.372839 116.716737 87.775182 125.470211 C 75.177525 134.223684 56.336132 136.121291 56.336132 136.121291 " transform="matrix(0.31907,0,0,0.31907,7.56,7.56)"/>
<path style="fill:none;stroke-width:40;stroke-linecap:round;stroke-linejoin:round;stroke:rgb(27.058825%,31.37255%,43.137255%);stroke-opacity:1;stroke-miterlimit:10;" d="M 44.313879 43.603807 L 84.996107 11.870934 L 126.878112 43.603807 " transform="matrix(0.31907,0,0,0.31907,7.56,7.56)"/>
<path style="fill:none;stroke-width:40;stroke-linecap:round;stroke-linejoin:round;stroke:rgb(27.058825%,31.37255%,43.137255%);stroke-opacity:1;stroke-miterlimit:10;" d="M 118.761255 38.0579 L 118.761255 78.568731 L 52.430736 78.568731 L 52.430736 38.0579 " transform="matrix(0.31907,0,0,0.31907,7.56,7.56)"/>
<path style="fill:none;stroke-width:40;stroke-linecap:round;stroke-linejoin:round;stroke:rgb(27.058825%,31.37255%,43.137255%);stroke-opacity:1;stroke-miterlimit:10;" d="M 65.836406 57.560394 L 65.836406 39.612713 L 79.180862 39.612713 L 79.180862 57.560394 Z M 65.836406 57.560394 " transform="matrix(0.31907,0,0,0.31907,7.56,7.56)"/>
<path style="fill:none;stroke-width:40;stroke-linecap:round;stroke-linejoin:round;stroke:rgb(27.058825%,31.37255%,43.137255%);stroke-opacity:1;stroke-miterlimit:10;" d="M 93.076237 78.311636 L 93.076237 52.455222 L 107.742896 52.455222 L 107.742896 78.311636 Z M 93.076237 78.311636 " transform="matrix(0.31907,0,0,0.31907,7.56,7.56)"/>
<path style="fill:none;stroke-width:40;stroke-linecap:round;stroke-linejoin:round;stroke:rgb(27.058825%,31.37255%,43.137255%);stroke-opacity:1;stroke-miterlimit:10;" d="M 65.836406 45.623839 L 79.180862 45.623839 " transform="matrix(0.31907,0,0,0.31907,7.56,7.56)"/>
<path style=" stroke:none;fill-rule:nonzero;fill:rgb(27.058825%,31.37255%,43.137255%);fill-opacity:1;" d="M 55.03125 35 C 55.03125 46.0625 46.0625 55.03125 35 55.03125 C 23.9375 55.03125 14.96875 46.0625 14.96875 35 C 14.96875 23.9375 23.9375 14.96875 35 14.96875 C 46.0625 14.96875 55.03125 23.9375 55.03125 35 Z M 55.03125 35 "/>
<path style="fill:none;stroke-width:1;stroke-linecap:round;stroke-linejoin:round;stroke:rgb(100%,100%,100%);stroke-opacity:1;stroke-miterlimit:10;" d="M 16.180337 104.596543 C 16.180337 104.596543 45.587111 85.620481 77.368954 91.007234 C 105.490254 95.794098 109.579289 92.194768 122.960474 86.391766 C 131.983285 82.474127 134.52975 91.986643 133.415671 95.059541 " transform="matrix(0.31907,0,0,0.31907,7.56,7.56)"/>
<path style="fill:none;stroke-width:1;stroke-linecap:round;stroke-linejoin:round;stroke:rgb(100%,100%,100%);stroke-opacity:1;stroke-miterlimit:10;" d="M 139.218674 108.722306 C 146.25818 99.307731 135.998864 93.015024 131.052846 95.904282 C 131.052846 95.904282 114.415124 104.559815 103.0907 105.747349 " transform="matrix(0.31907,0,0,0.31907,7.56,7.56)"/>
<path style="fill:none;stroke-width:1;stroke-linecap:round;stroke-linejoin:round;stroke:rgb(100%,100%,100%);stroke-opacity:1;stroke-miterlimit:10;" d="M 105.367828 118.247065 C 105.367828 118.247065 118.736769 116.533098 129.20421 109.885355 C 139.39007 103.409008 149.147439 114.562036 138.031139 122.678893 C 127.845279 130.122407 115.296593 135.974379 80.907072 140.88367 C 48.831406 145.474653 42.612155 149.784055 37.813047 153.07732 " transform="matrix(0.31907,0,0,0.31907,7.56,7.56)"/>
<path style="fill:none;stroke-width:1;stroke-linecap:round;stroke-linejoin:round;stroke:rgb(100%,100%,100%);stroke-opacity:1;stroke-miterlimit:10;" d="M 52.883713 103.139671 C 52.883713 103.139671 59.898735 102.270445 68.835848 109.212011 C 74.822489 113.215348 78.98498 112.113512 83.306625 109.983296 C 91.325542 106.053414 100.372839 116.716737 87.775182 125.470211 C 75.177525 134.223684 56.336132 136.121291 56.336132 136.121291 " transform="matrix(0.31907,0,0,0.31907,7.56,7.56)"/>
<path style="fill:none;stroke-width:1;stroke-linecap:round;stroke-linejoin:round;stroke:rgb(100%,100%,100%);stroke-opacity:1;stroke-miterlimit:10;" d="M 44.313879 43.603807 L 84.996107 11.870934 L 126.878112 43.603807 " transform="matrix(0.31907,0,0,0.31907,7.56,7.56)"/>
<path style="fill:none;stroke-width:1;stroke-linecap:round;stroke-linejoin:round;stroke:rgb(100%,100%,100%);stroke-opacity:1;stroke-miterlimit:10;" d="M 118.761255 38.0579 L 118.761255 78.568731 L 52.430736 78.568731 L 52.430736 38.0579 " transform="matrix(0.31907,0,0,0.31907,7.56,7.56)"/>
<path style="fill:none;stroke-width:1;stroke-linecap:round;stroke-linejoin:round;stroke:rgb(100%,100%,100%);stroke-opacity:1;stroke-miterlimit:10;" d="M 38.27698 23.030646 L 46.035384 23.030646 L 46.035384 33.465345 L 38.27698 33.465345 Z M 38.27698 23.030646 " transform="matrix(0.5488,0,0,0.5488,7.56,7.56)"/>
<path style="fill:none;stroke-width:1;stroke-linecap:round;stroke-linejoin:round;stroke:rgb(100%,100%,100%);stroke-opacity:1;stroke-miterlimit:10;" d="M 54.11409 30.497221 L 62.641218 30.497221 L 62.641218 45.53002 L 54.11409 45.53002 Z M 54.11409 30.497221 " transform="matrix(0.5488,0,0,0.5488,7.56,7.56)"/>
<path style="fill:none;stroke-width:1;stroke-linecap:round;stroke-linejoin:round;stroke:rgb(100%,100%,100%);stroke-opacity:1;stroke-miterlimit:10;" d="M 65.836406 45.623839 L 79.180862 45.623839 " transform="matrix(0.31907,0,0,0.31907,7.56,7.56)"/>
</g>
</svg>
